<svg width="16" height="16" viewBox="0 0 16 16" fill="none" xmlns="http://www.w3.org/2000/svg">
<style>
	path { fill: #2D2E36; }
	@media (prefers-color-scheme: dark) {
		path { fill: #FFFF90; }
	}
</style>
<path d="M13.9372 8.85373C13.8892 8.84265 13.8375 8.83896 13.7932 8.82049C13.7341 8.79464 13.6824 8.77617 13.6159 8.79833C13.5199 8.63583 13.3722 8.56197 13.1875 8.53242C13.0065 8.72816 12.8256 8.93129 12.6372 9.13072C12.375 9.4114 12.1054 9.6884 11.8432 9.96908C11.5625 10.2645 11.2818 10.5637 11.0011 10.8591C10.8091 11.0623 10.6133 11.2654 10.4213 11.4648C10.4028 11.4833 10.377 11.4981 10.3511 11.5091C10.2034 11.5609 10.0557 11.6126 9.90423 11.6643C9.36872 11.8452 8.8332 12.0225 8.29769 12.2035C8.25337 12.2182 8.20905 12.2219 8.16104 12.2072C8.02439 12.1739 7.88774 12.1444 7.75478 12.1111C7.64768 12.0853 6.46955 11.8046 6.41046 11.7898C6.19994 11.7381 5.99312 11.6827 5.7863 11.6347C5.74199 11.6236 5.70505 11.6052 5.67551 11.5756C5.46869 11.3725 5.26187 11.1731 5.05505 10.9699C4.80391 10.7262 4.55647 10.4787 4.30533 10.235C4.02464 9.95431 3.74396 9.67362 3.46328 9.39663C3.26384 9.1972 3.06072 8.99777 2.86128 8.79833C2.70617 8.64322 2.54736 8.4918 2.39225 8.34037C2.3627 8.31452 2.32946 8.29236 2.29991 8.26651C2.28884 8.28498 2.28145 8.28867 2.27776 8.29975C2.23713 8.38839 2.18543 8.46225 2.11895 8.53611C2.0377 8.62106 2.00446 8.74293 2.00076 8.86481C1.99707 8.9239 2.00815 8.98669 2.00446 9.04578C1.99707 9.12333 2.01923 9.18981 2.07463 9.24521C2.13741 9.31169 2.2002 9.37447 2.26668 9.43726C2.55475 9.72163 2.83912 10.0097 3.12719 10.2941C3.38202 10.5489 3.64055 10.8037 3.89538 11.0586C4.07635 11.2358 4.25732 11.4131 4.43828 11.5904C4.54908 11.6975 4.65249 11.8083 4.75959 11.9154C4.74851 11.9449 4.73005 11.9745 4.73374 12.004C4.73743 12.0594 4.73743 12.1148 4.76329 12.1665C4.77436 12.1924 4.78175 12.2219 4.78544 12.2478C4.78914 12.281 4.80022 12.2995 4.83346 12.3106C4.96641 12.3401 5.09937 12.3697 5.23232 12.4066C5.26187 12.414 5.29141 12.4324 5.31357 12.4509C5.36897 12.4989 5.42437 12.5543 5.48346 12.6134C5.51301 12.5691 5.53517 12.5322 5.56102 12.4915C5.58687 12.4952 5.61272 12.4989 5.64227 12.5063C5.76784 12.5359 5.8971 12.5691 6.02267 12.5986C6.25165 12.654 6.48063 12.7057 6.70961 12.7611C6.9312 12.8128 7.15648 12.8719 7.37808 12.9236C7.62552 12.9827 7.87666 13.0381 8.12411 13.0972C8.17212 13.1083 8.21644 13.1305 8.26075 13.1342C8.30877 13.1379 8.3457 13.1526 8.37524 13.1859C8.38632 13.1526 8.4011 13.1231 8.41587 13.0825C9.47951 12.7242 10.5505 12.3549 11.6327 11.9708C11.6031 11.9339 11.5883 11.9117 11.5662 11.8895C11.5292 11.8489 11.4849 11.8157 11.4517 11.7751C11.4037 11.7197 11.4037 11.668 11.4554 11.6126C11.5477 11.5165 11.64 11.4205 11.7324 11.3208C11.9466 11.0918 12.1645 10.8628 12.3787 10.6302C12.6224 10.3679 12.8699 10.1057 13.1136 9.84351C13.398 9.53697 13.6787 9.23044 13.9631 8.9239C13.9741 8.90913 13.9852 8.89436 14 8.8722C13.9741 8.8685 13.9557 8.85742 13.9372 8.85373Z"/>
<path d="M3.11991 6.12076C3.16053 6.16877 3.22332 6.20201 3.29349 6.21309C3.3415 6.22048 3.38582 6.24633 3.43383 6.2611C3.4486 6.2648 3.46337 6.2648 3.47445 6.2648C3.54832 6.2611 3.62218 6.25741 3.69235 6.30173C3.70343 6.30911 3.71451 6.30911 3.72929 6.31281C4.03951 5.96934 4.34605 5.62956 4.65259 5.2861C5.1327 5.72189 5.60544 6.14661 6.08186 6.57872C6.18158 6.46054 6.21851 6.32758 6.25913 6.19463C6.27021 6.16139 6.27391 6.12815 6.30345 6.1023C6.32192 6.08752 6.333 6.06536 6.34408 6.0469C6.39578 5.97303 6.4401 5.89548 6.52135 5.85116C6.53243 5.84746 6.53612 5.83638 6.5509 5.82161C6.51027 5.77729 5.47987 4.83552 5.25089 4.62501C5.39123 4.47359 5.52418 4.32586 5.65714 4.18183C5.7901 4.03779 5.91936 3.89376 6.04862 3.74603C6.18158 3.60199 6.31822 3.46165 6.44749 3.29915C6.41425 3.28807 6.39578 3.2733 6.37732 3.27699C6.24805 3.28068 6.14464 3.19574 6.02277 3.18097C6.01538 3.18097 6.0043 3.17727 6.00061 3.16989C5.93413 3.09602 5.83811 3.10341 5.75316 3.08494C5.67561 3.06648 5.59066 3.07017 5.52418 3C5.21026 3.34347 4.90373 3.67955 4.5935 4.02302C4.2094 3.69432 3.85485 3.34716 3.45968 3.01847C3.44491 3.06278 3.43383 3.08494 3.43014 3.11449C3.41906 3.16619 3.41906 3.22898 3.3932 3.2733C3.35627 3.33608 3.30457 3.39517 3.24547 3.44319C3.20485 3.47642 3.19746 3.50966 3.20485 3.55398C3.20854 3.57983 3.20485 3.60938 3.20116 3.63893C3.18638 3.71279 3.17161 3.78665 3.15314 3.86052C3.14206 3.90484 3.15684 3.93807 3.19008 3.96762C3.35627 4.11535 3.52247 4.26677 3.68866 4.41819C3.78838 4.50683 3.88809 4.59916 3.9915 4.69518C3.63326 5.09036 3.27871 5.48553 2.91309 5.88809C2.99064 5.96195 3.05343 6.0432 3.11991 6.12076Z"/>
<path d="M9.40196 6.19461C9.51645 6.26848 9.59031 6.40513 9.74173 6.42359C9.75281 6.42359 9.7602 6.43837 9.76759 6.44206C9.85992 6.49007 9.94855 6.54178 10.0446 6.59348C10.3807 6.27217 10.7167 5.94717 11.0602 5.61847C11.0824 5.64433 11.1008 5.66279 11.1193 5.68126C11.2523 5.85115 11.3852 6.02103 11.5219 6.18723C11.6031 6.28694 11.6844 6.38666 11.7619 6.48638C11.7952 6.5307 11.8173 6.5824 11.8912 6.60456C11.965 6.54916 12.0426 6.48638 12.1239 6.42729C12.1534 6.40513 12.1829 6.38666 12.2162 6.3645C12.2346 6.35342 12.2605 6.33865 12.2642 6.32388C12.2864 6.22047 12.375 6.20569 12.4525 6.17615C12.4821 6.16507 12.5375 6.19092 12.5449 6.1466C12.5486 6.11706 12.5227 6.07643 12.5043 6.04689C12.4969 6.03211 12.4821 6.02103 12.471 6.00626C12.4119 5.93609 12.3491 5.86592 12.2937 5.79205C12.0943 5.53722 11.8949 5.28608 11.6844 5.02017C11.8099 4.8946 11.9355 4.77642 12.0574 4.65824C12.1793 4.54006 12.3048 4.42557 12.423 4.30738C12.5412 4.18551 12.6778 4.0821 12.7849 3.94914C12.7258 3.90113 12.6704 3.87528 12.604 3.87159C12.4969 3.86789 12.4082 3.80511 12.3122 3.76448C12.2605 3.74232 12.2051 3.69431 12.1903 3.6463C12.1682 3.56505 12.0906 3.52812 12.0648 3.43948C11.7545 3.73863 11.4517 4.0267 11.1415 4.32585C10.8054 3.90483 10.4693 3.49119 10.1332 3.07016C10.0963 3.11817 10.052 3.15141 10.0446 3.19204C10.0298 3.26221 10.0003 3.32499 9.98179 3.39147C9.97071 3.43209 9.95225 3.46533 9.92639 3.49488C9.90054 3.52442 9.88208 3.56136 9.8673 3.59829C9.85253 3.62783 9.85253 3.66107 9.83406 3.68693C9.78974 3.74232 9.77867 3.81249 9.75651 3.87528C9.73435 3.93806 9.75281 3.97869 9.78974 4.02301C9.98179 4.25937 10.1775 4.49574 10.3696 4.7358C10.4213 4.79858 10.4693 4.86506 10.521 4.93154C10.1258 5.32302 9.71957 5.69603 9.33179 6.08751C9.35395 6.12075 9.36872 6.17245 9.40196 6.19461Z"/>
</svg>
