<?xml version="1.0" standalone="no"?>
<!DOCTYPE svg PUBLIC "-//W3C//DTD SVG 20010904//EN"
 "http://www.w3.org/TR/2001/REC-SVG-20010904/DTD/svg10.dtd">
<svg version="1.0" xmlns="http://www.w3.org/2000/svg"
 width="700.000000pt" height="700.000000pt" viewBox="0 0 700.000000 700.000000"
 preserveAspectRatio="xMidYMid meet">
<metadata>
Created by potrace 1.14, written by Peter Selinger 2001-2017
</metadata>
<g transform="translate(0.000000,700.000000) scale(0.100000,-0.100000)"
fill="#000000" stroke="none">
<path d="M2408 5680 c-2 -5 -26 -33 -53 -62 -28 -29 -93 -100 -145 -158 -52
-58 -97 -107 -100 -110 -3 -3 -26 -28 -52 -57 l-48 -52 -39 33 c-22 19 -46 40
-54 47 -8 8 -29 27 -48 44 -19 16 -79 70 -134 120 -55 50 -128 114 -162 143
l-61 53 -13 -57 c-12 -53 -42 -103 -79 -131 -10 -7 -17 -29 -19 -56 -1 -25 -6
-60 -11 -78 -21 -70 -20 -71 111 -190 214 -192 239 -217 239 -227 0 -4 -24
-32 -53 -62 -54 -58 -184 -202 -253 -280 -21 -24 -64 -71 -94 -103 -30 -32
-56 -62 -58 -66 -1 -5 20 -36 49 -69 43 -51 61 -64 112 -81 34 -12 78 -21 98
-21 21 0 50 -5 64 -12 24 -11 29 -8 83 52 65 73 230 256 282 313 19 21 39 45
43 53 13 22 29 16 77 -28 153 -139 298 -271 327 -295 11 -10 58 -53 104 -95
114 -103 131 -118 139 -118 13 0 37 44 64 118 28 78 61 130 108 173 36 32 32
40 -51 113 -31 27 -88 79 -127 115 -38 36 -113 105 -165 152 -51 48 -116 107
-143 131 l-49 45 32 33 c17 18 59 64 93 103 35 39 70 77 79 86 9 9 85 92 168
185 152 170 161 185 105 186 -12 0 -41 7 -65 16 -24 9 -48 17 -54 18 -5 1 -24
9 -40 18 -17 9 -60 22 -95 28 -36 6 -75 18 -87 25 -12 8 -23 10 -25 5z"/>
<path d="M4414 5637 c-6 -7 -21 -43 -33 -79 -12 -37 -31 -78 -42 -92 -10 -13
-19 -27 -19 -31 0 -3 -11 -30 -24 -59 -33 -72 -37 -114 -13 -138 55 -55 316
-392 310 -401 -3 -6 -63 -65 -132 -131 -69 -67 -184 -178 -255 -248 l-131
-127 59 -56 c40 -37 95 -73 162 -107 l102 -51 24 24 c99 97 411 394 416 396 4
1 60 -65 126 -147 65 -83 129 -162 143 -177 13 -16 33 -43 46 -60 12 -18 28
-35 35 -38 16 -6 175 110 184 136 8 21 64 49 98 49 32 0 24 24 -36 97 -30 37
-72 91 -93 118 -21 28 -82 104 -134 169 l-96 120 58 55 c318 304 421 406 421
413 0 10 -66 38 -90 38 -20 0 -118 43 -140 62 -8 7 -21 24 -28 38 -7 14 -23
37 -36 53 l-22 27 -64 -61 c-36 -34 -126 -120 -200 -191 l-134 -130 -21 24
c-11 14 -51 64 -90 112 -38 49 -86 107 -105 131 -46 56 -52 64 -143 178 -42
53 -81 97 -85 97 -4 -1 -12 -6 -18 -13z"/>
<path d="M993 3363 c-8 -22 -40 -69 -71 -103 -12 -13 -27 -39 -33 -57 -13 -41
-18 -158 -7 -198 7 -28 446 -474 1047 -1065 l144 -141 3 -52 c5 -116 20 -136
113 -150 76 -12 123 -33 166 -73 l44 -42 16 24 c8 13 23 24 33 24 9 0 89 -18
177 -39 145 -35 348 -84 840 -201 94 -22 178 -43 187 -46 10 -3 19 2 22 14 4
13 38 29 114 54 490 166 1291 444 1299 451 1 2 -14 21 -35 43 -63 67 -65 71
-53 93 6 11 32 42 58 69 27 27 100 104 163 172 123 131 126 135 295 315 61 65
125 134 144 154 59 63 209 225 237 256 15 17 70 76 123 133 53 57 97 107 99
112 3 9 -90 39 -134 42 -18 2 -41 16 -62 40 -21 23 -55 45 -90 58 l-57 21 -45
-48 c-25 -27 -100 -107 -166 -178 -67 -72 -136 -146 -154 -165 -18 -19 -95
-100 -170 -180 -76 -80 -162 -170 -192 -202 -112 -119 -337 -355 -418 -440
l-85 -89 -460 -155 c-253 -85 -471 -155 -485 -156 -14 0 -151 30 -305 67 -154
37 -284 68 -290 70 -45 10 -75 17 -105 25 -19 5 -111 28 -205 50 -93 23 -178
46 -190 52 -11 6 -94 84 -185 173 -91 89 -203 200 -250 245 -47 45 -302 298
-567 561 -265 264 -487 479 -493 479 -6 0 -14 -8 -17 -17z"/>
</g>
</svg>
